<svg width="13" height="16" viewBox="0 0 13 16" fill="none" xmlns="http://www.w3.org/2000/svg">
<path d="M4.79894 15.2294C2.6501 15.217 0.87262 10.8305 0.87262 8.59656C0.87262 4.94741 3.6101 4.14852 4.6651 4.14852C5.14055 4.14852 5.64823 4.33523 6.09601 4.50045C6.40914 4.6157 6.73298 4.73467 6.91309 4.73467C7.0209 4.73467 7.27495 4.63347 7.49925 4.54467C7.9776 4.35423 8.57284 4.11755 9.26598 4.11755C9.26722 4.11755 9.26889 4.11755 9.2701 4.11755C9.78768 4.11755 11.357 4.23114 12.3005 5.648L12.5215 5.98011L12.2034 6.22012C11.749 6.56297 10.9199 7.18838 10.9199 8.42722C10.9199 9.89447 11.8589 10.4587 12.31 10.7301C12.5091 10.8499 12.7152 10.9734 12.7152 11.2436C12.7152 11.42 11.3074 15.2075 9.26308 15.2075C8.76285 15.2075 8.40925 15.0571 8.09736 14.9246C7.78178 14.7903 7.50954 14.6746 7.0597 14.6746C6.83168 14.6746 6.54334 14.7825 6.23808 14.8969C5.82092 15.0526 5.34875 15.2294 4.81298 15.2294H4.79894Z" fill="white"/>
<path d="M9.48257 0.79126C9.53581 2.71098 8.16291 4.04279 6.79162 3.95926C6.56565 2.42726 8.16274 0.79126 9.48257 0.79126Z" fill="white"/>
</svg>
