<svg width="15" height="15" viewBox="0 0 15 15" fill="none" xmlns="http://www.w3.org/2000/svg">
<path d="M0.246491 14.4458H1.69031V6.50478C1.69031 6.37189 1.79806 6.26414 1.93095 6.26414H5.29986V0.729498C5.29986 0.596606 5.40761 0.488861 5.5405 0.488861H11.7971C11.9299 0.488861 12.0377 0.596606 12.0377 0.729498V14.4458H14.2034C14.3363 14.4458 14.4441 14.5535 14.4441 14.6864C14.4441 14.8193 14.3363 14.9271 14.2034 14.9271H0.246491C0.1136 14.9271 0.00585443 14.8193 0.00585443 14.6864C0.00585443 14.5535 0.1136 14.4458 0.246491 14.4458ZM9.39069 14.4458H10.3532V12.2801C10.3532 12.1472 10.2455 12.0394 10.1126 12.0394H9.63133C9.49843 12.0394 9.39069 12.1472 9.39069 12.2801V14.4458ZM8.42814 6.50478V14.4458H8.90942V12.2801C8.90942 11.8814 9.23262 11.5582 9.63133 11.5582H10.1126C10.5113 11.5582 10.8345 11.8814 10.8345 12.2801V14.4458H11.5564V0.970135H5.78114V6.26414H8.1875C8.3204 6.26414 8.42814 6.37189 8.42814 6.50478ZM2.17159 14.4458H7.94687V6.74542H2.17159V14.4458Z" fill="#84829A"/>
<path d="M6.74367 3.85782H8.18749C8.32039 3.85782 8.42813 3.96556 8.42813 4.09846V5.54228C8.42813 5.67517 8.32039 5.78291 8.18749 5.78291H6.74367C6.61078 5.78291 6.50304 5.67517 6.50304 5.54228V4.09846C6.50304 3.96556 6.61078 3.85782 6.74367 3.85782ZM6.98431 5.30164H7.94686V4.33909H6.98431V5.30164Z" fill="#84829A"/>
<path d="M6.74367 1.45139H8.18749C8.32039 1.45139 8.42813 1.55913 8.42813 1.69202V3.13584C8.42813 3.26873 8.32039 3.37648 8.18749 3.37648H6.74367C6.61078 3.37648 6.50304 3.26873 6.50304 3.13584V1.69202C6.50304 1.55913 6.61078 1.45139 6.74367 1.45139ZM6.98431 2.89521H7.94686V1.93266H6.98431V2.89521Z" fill="#84829A"/>
<path d="M9.15005 3.85782H10.5939C10.7268 3.85782 10.8345 3.96556 10.8345 4.09846V5.54228C10.8345 5.67517 10.7268 5.78291 10.5939 5.78291H9.15005C9.01715 5.78291 8.90941 5.67517 8.90941 5.54228V4.09846C8.90941 3.96556 9.01715 3.85782 9.15005 3.85782ZM9.39068 5.30164H10.3532V4.33909H9.39068V5.30164Z" fill="#84829A"/>
<path d="M9.15005 1.45139H10.5939C10.7268 1.45139 10.8345 1.55913 10.8345 1.69202V3.13584C10.8345 3.26873 10.7268 3.37648 10.5939 3.37648H9.15005C9.01715 3.37648 8.90941 3.26873 8.90941 3.13584V1.69202C8.90941 1.55913 9.01715 1.45139 9.15005 1.45139ZM9.39068 2.89521H10.3532V1.93266H9.39068V2.89521Z" fill="#84829A"/>
<path d="M9.15005 6.26404H10.5939C10.7268 6.26404 10.8345 6.37178 10.8345 6.50467V7.9485C10.8345 8.08139 10.7268 8.18913 10.5939 8.18913H9.15005C9.01715 8.18913 8.90941 8.08139 8.90941 7.9485V6.50467C8.90941 6.37178 9.01715 6.26404 9.15005 6.26404ZM9.39068 7.70786H10.3532V6.74531H9.39068V7.70786Z" fill="#84829A"/>
<path d="M9.15005 8.67047H10.5939C10.7268 8.67047 10.8345 8.77822 10.8345 8.91111V10.3549C10.8345 10.4878 10.7268 10.5956 10.5939 10.5956H9.15005C9.01715 10.5956 8.90941 10.4878 8.90941 10.3549V8.91111C8.90941 8.77822 9.01715 8.67047 9.15005 8.67047ZM9.39068 10.1143H10.3532V9.15174H9.39068V10.1143Z" fill="#84829A"/>
<path d="M4.57794 11.5581H3.13412C3.00122 11.5581 2.89348 11.4504 2.89348 11.3175V9.87366C2.89348 9.74077 3.00122 9.63303 3.13412 9.63303H4.57794C4.71083 9.63303 4.81857 9.74077 4.81857 9.87366V11.3175C4.81857 11.4504 4.71083 11.5581 4.57794 11.5581ZM4.3373 10.1143H3.37475V11.0768H4.3373V10.1143Z" fill="#84829A"/>
<path d="M4.57794 9.15166H3.13412C3.00122 9.15166 2.89348 9.04391 2.89348 8.91102V7.4672C2.89348 7.33431 3.00122 7.22656 3.13412 7.22656H4.57794C4.71083 7.22656 4.81857 7.33431 4.81857 7.4672V8.91102C4.81857 9.04391 4.71083 9.15166 4.57794 9.15166ZM4.3373 7.70784H3.37475V8.67038H4.3373V7.70784Z" fill="#84829A"/>
<path d="M4.57794 13.9646H3.13412C3.00122 13.9646 2.89348 13.8568 2.89348 13.7239V12.2801C2.89348 12.1472 3.00122 12.0395 3.13412 12.0395H4.57794C4.71083 12.0395 4.81857 12.1472 4.81857 12.2801V13.7239C4.81857 13.8568 4.71083 13.9646 4.57794 13.9646ZM4.3373 12.5207H3.37475V13.4833H4.3373V12.5207Z" fill="#84829A"/>
<path d="M6.98431 11.5581H5.54049C5.4076 11.5581 5.29985 11.4504 5.29985 11.3175V9.87366C5.29985 9.74077 5.4076 9.63303 5.54049 9.63303H6.98431C7.1172 9.63303 7.22495 9.74077 7.22495 9.87366V11.3175C7.22495 11.4504 7.1172 11.5581 6.98431 11.5581ZM6.74367 10.1143H5.78112V11.0768H6.74367V10.1143Z" fill="#84829A"/>
<path d="M6.98431 9.15166H5.54049C5.4076 9.15166 5.29985 9.04391 5.29985 8.91102V7.4672C5.29985 7.33431 5.4076 7.22656 5.54049 7.22656H6.98431C7.1172 7.22656 7.22495 7.33431 7.22495 7.4672V8.91102C7.22495 9.04391 7.1172 9.15166 6.98431 9.15166ZM6.74367 7.70784H5.78112V8.67038H6.74367V7.70784Z" fill="#84829A"/>
<path d="M6.98431 13.9646H5.54049C5.4076 13.9646 5.29985 13.8568 5.29985 13.7239V12.2801C5.29985 12.1472 5.4076 12.0395 5.54049 12.0395H6.98431C7.1172 12.0395 7.22495 12.1472 7.22495 12.2801V13.7239C7.22495 13.8568 7.1172 13.9646 6.98431 13.9646ZM6.74367 12.5207H5.78112V13.4833H6.74367V12.5207Z" fill="#84829A"/>
</svg>
