<svg width="88" height="230" viewBox="0 0 88 230" fill="none" xmlns="http://www.w3.org/2000/svg">
<path d="M8.0967 13.356C14.4376 5.67087 30.471 -6.14498 43.8775 8.07247C57.284 22.2899 39.1973 48.8996 28.4782 60.4273C23.1941 63.6294 12.173 69.073 10.3613 65.2305C8.09669 60.4273 6.73792 50.3406 25.3077 41.6948C37.2347 36.5714 62.9908 31.1278 70.5999 50.3406C74.0723 58.6661 74.6762 78.007 49.3126 88.7661L17.608 102.695M17.608 102.695C5.53013 103.179 -11.8319 97.4206 15.3434 70.514C23.949 66.3512 44.7834 57.9296 59.2769 57.5454C67.5805 59.3065 83.5535 68.0163 81.0171 88.7661C81.3191 92.9289 75.6727 103.272 50.6714 111.341C44.9344 112.622 32.1016 115.28 26.6665 115.664L7.1909 118.546L17.608 102.695ZM17.608 102.695C25.5332 100.454 44.2376 96.6434 55.6535 99.3331C69.9234 102.695 75.5821 99.8135 86.9051 118.546C88.8678 128.152 87.4486 147.845 66.0707 149.767C44.6928 151.688 30.8938 148.005 26.6665 145.924V128.152M26.6665 128.152C42.2168 129.593 75.5821 128.537 84.6405 112.782C89.0187 101.575 89.3509 78.6794 55.6535 76.7581C47.5009 77.0784 30.1087 78.103 25.7607 79.6401L26.6665 113.743C42.5188 115.184 75.8538 122.004 82.3759 137.759C85.8483 146.885 86.9957 166.098 63.8061 169.94C55.2006 170.26 35.725 169.075 26.6665 161.775M26.6665 128.152V161.775M26.6665 128.152C36.4798 130.554 58.0993 137.182 66.0707 144.483C75.733 152.488 89.8944 172.342 69.2412 187.712C62.7493 190.113 45.508 192.035 28.4782 180.507M26.6665 161.775L28.4782 180.507M26.6665 161.775C37.5366 169.46 59.7298 188.096 61.5415 201.161C62.2964 209.166 60.2734 225.849 46.1422 228.539C42.5188 229.179 33.5509 229.115 26.6665 223.736L28.4782 180.507" stroke="#84829A" stroke-width="0.902388"/>
</svg>
