<svg width="84" height="71" viewBox="35 25 85 90" fill="none" xmlns="http://www.w3.org/2000/svg">
<path d="M43.6516 66.4012C43.6516 75.3719 50.9238 82.6442 59.8946 82.6442L84.259 82.6442C86.7509 82.6442 88.771 80.6241 88.771 78.1322L88.771 47.451C88.771 42.4673 84.7308 38.4272 79.7471 38.4272L48.1635 38.4272C45.6716 38.4272 43.6516 40.4472 43.6516 42.9391L43.6516 66.4012Z" fill="#FFF1DA"/>
<path d="M87.4931 78.9818C86.2674 79.2564 85.0735 79.7649 83.9856 80.4754C81.1514 82.2814 79.5025 84.8593 80.3028 86.2328C81.1032 87.6064 84.0496 87.2551 86.8838 85.4492C87.9863 84.7637 88.9657 83.8877 89.7618 82.8752C90.1312 82.386 90.1975 81.7765 89.9311 81.3209L88.8914 79.5365C88.6268 79.0794 88.0781 78.8621 87.4931 78.9818Z" fill="#D5D6DB"/>
<path d="M80.376 54.6235C79.4872 54.8227 78.6214 55.1916 77.8325 55.7069C75.7779 57.0161 74.5815 58.8853 75.1614 59.8804C75.7413 60.8756 77.8785 60.6206 79.9329 59.3116C80.7323 58.8143 81.4425 58.1788 82.0198 57.4445C82.2873 57.09 82.3353 56.6484 82.1422 56.318L81.3893 55.026C81.1978 54.6947 80.8002 54.5367 80.376 54.6235Z" fill="#D5D6DB"/>
<path d="M68.8126 55.6436C68.6148 55.6215 68.4038 55.6742 68.2208 55.7911L63.3947 58.8666C62.991 59.1231 62.8295 59.617 63.0343 59.97C63.0811 60.0509 63.1452 60.12 63.223 60.1732L75.1179 68.3713L91.2106 58.116L68.8126 55.6436Z" fill="#029BC5"/>
<path d="M119.686 54.4844L75.8918 82.0543L49.9818 92.3644L36.768 94.991L35.3143 92.521L108.313 47.4498C110.489 46.1008 112.912 45.2728 115.338 45.0499C116.401 44.9579 117.45 44.9932 118.462 45.1546C119.359 45.2906 120.21 45.5529 120.989 45.9338C121.859 46.3654 123.515 46.4151 124.051 47.2749C124.053 47.2736 125.318 51.221 119.686 54.4844V54.4844Z" fill="#E1E6E9"/>
<path d="M76.4724 78.4062L57.5265 108.609C57.2899 109.033 57.4303 109.508 57.8399 109.67C58.0913 109.77 58.3989 109.73 58.6574 109.566L63.4797 106.507C64.4073 105.918 65.2285 105.17 65.8928 104.31L102.635 61.1136L76.4724 78.4062Z" fill="#029BC5"/>
<path d="M28.6642 77.3979C28.3482 77.2899 27.9721 77.3459 27.6546 77.5481L23.6683 80.0869C23.1251 80.4325 22.9087 81.0971 23.1847 81.5714C23.2373 81.6616 23.3056 81.741 23.3875 81.8064L34.5561 90.7511L46.2989 83.4164L28.6642 77.3979Z" fill="#029BC5"/>
<path d="M38.2995 92.3636L32.2883 100.782C32.2002 100.903 32.2209 101.055 32.3346 101.122C32.4165 101.169 32.5284 101.161 32.6194 101.1L36.3447 98.739C36.3736 98.7207 36.3998 98.6977 36.4215 98.6715L45.2049 87.9919L38.2995 92.3636Z" fill="#029BC5"/>
<path d="M117.743 45.5175C116.701 45.3502 115.621 45.3145 114.526 45.4107C113.461 46.9006 112.78 48.5742 112.551 50.2648C112.534 50.6044 112.808 50.8488 113.162 50.8107C113.273 50.7988 113.382 50.7601 113.481 50.698L120.346 46.3266C119.543 45.9308 118.667 45.6584 117.743 45.5175Z" fill="#029BC5"/>
<path d="M102.782 53.5562L107.264 50.7254L111.439 57.8263L106.957 60.6571L102.782 53.5562Z" fill="#D5D6DB"/>
<path d="M99.9619 56.3644C99.4218 56.7066 99.2059 57.3642 99.4801 57.8332L99.9244 58.593C100.217 59.05 100.884 59.1304 101.415 58.7724C101.92 58.4315 102.123 57.8119 101.88 57.3543L101.435 56.5945C101.161 56.1259 100.502 56.0228 99.9619 56.3644V56.3644Z" fill="#3A556A"/>
<path d="M95.9333 58.8664C95.3932 59.2085 95.1773 59.8662 95.4515 60.3352L95.8957 61.095C96.188 61.552 96.8551 61.6323 97.3859 61.2744C97.8911 60.9334 98.0945 60.3138 97.8511 59.8563L97.4068 59.0965C97.1326 58.628 96.4731 58.5249 95.9333 58.8664V58.8664Z" fill="#3A556A"/>
<path d="M91.9033 61.369C91.3638 61.7115 91.1487 62.3684 91.4227 62.837L91.8669 63.5967C92.1592 64.0537 92.8263 64.1341 93.3571 63.7761C93.8623 63.4352 94.0657 62.8156 93.8223 62.3581L93.378 61.5983C93.1038 61.1294 92.4437 61.0267 91.9033 61.369V61.369Z" fill="#3A556A"/>
<path d="M87.8748 63.8708C87.3353 64.2134 87.1202 64.8702 87.3941 65.3388L87.8384 66.0986C88.1306 66.5556 88.7978 66.636 89.3286 66.278C89.8338 65.9371 90.0372 65.3175 89.7938 64.8599L89.3495 64.1001C89.0751 63.6313 88.4149 63.5286 87.8748 63.8708V63.8708Z" fill="#3A556A"/>
<path d="M83.8466 66.3728C83.3068 66.7156 83.0915 67.3727 83.3657 67.8415L83.8102 68.6016C84.0842 69.0702 84.7441 69.1728 85.2841 68.8308C85.824 68.4888 86.0396 67.8317 85.7656 67.3631L85.3211 66.603C85.0477 66.134 84.3881 66.0307 83.8478 66.3721C83.8473 66.3724 83.8471 66.3725 83.8466 66.3728Z" fill="#3A556A"/>
<path d="M79.818 68.8747C79.2781 69.2174 79.0629 69.8745 79.3371 70.3433L79.7816 71.1034C80.0556 71.572 80.7155 71.6746 81.2554 71.3326C81.7954 70.9907 82.011 70.3336 81.737 69.865L81.2924 69.1049C81.0191 68.6358 80.3594 68.5325 79.8191 68.8739C79.8187 68.8742 79.8182 68.8745 79.818 68.8747Z" fill="#3A556A"/>
<path d="M75.7892 71.3765C75.2493 71.7192 75.0341 72.3764 75.3082 72.8451L75.7528 73.6052C76.0275 74.0734 76.6877 74.175 77.227 73.8325C77.7655 73.4907 77.9806 72.8349 77.7079 72.3669L77.2634 71.6068C76.9894 71.1379 76.3296 71.0348 75.7892 71.3765Z" fill="#3A556A"/>
<path d="M71.7604 73.8783C71.2205 74.2211 71.0053 74.8782 71.2794 75.347L71.724 76.1071C71.9987 76.5753 72.6589 76.6768 73.1982 76.3344C73.7367 75.9925 73.9518 75.3368 73.6791 74.8688L73.2346 74.1087C72.9606 73.6397 72.3008 73.5366 71.7604 73.8783Z" fill="#3A556A"/>
<path d="M67.7318 76.3802C67.192 76.7229 66.9768 77.38 67.2509 77.8488L67.6954 78.6089C67.9701 79.077 68.6303 79.1786 69.1697 78.8362C69.7082 78.4943 69.9233 77.8386 69.6505 77.3706L69.206 76.6105C68.9319 76.1417 68.272 76.0386 67.7318 76.3802Z" fill="#3A556A"/>
<path d="M63.7019 78.8827C63.162 79.2247 62.9464 79.8818 63.2204 80.3504L63.221 80.3514L63.6655 81.1115C63.9402 81.5797 64.6004 81.6812 65.1398 81.3388C65.6783 80.9969 65.8934 80.3412 65.6206 79.8732L65.1761 79.1131C64.9022 78.6441 64.2424 78.541 63.7019 78.8827Z" fill="#3A556A"/>
<path d="M59.6744 81.3838C59.1345 81.7258 58.9189 82.3829 59.1929 82.8515L59.1935 82.8525L59.638 83.6126C59.9127 84.0807 60.5729 84.1823 61.1123 83.8398C61.6508 83.498 61.8659 82.8423 61.5932 82.3743L61.1486 81.6142C60.8745 81.1454 60.2146 81.0422 59.6744 81.3838Z" fill="#3A556A"/>
</svg>
