<svg width="70" height="60" viewBox="0 0 70 60" fill="none" xmlns="http://www.w3.org/2000/svg">
<path d="M24.5509 43.473C24.5509 52.4437 31.8231 59.7159 40.7939 59.7159L65.1584 59.7159C67.6502 59.7159 69.6703 57.6959 69.6703 55.204L69.6703 24.5228C69.6703 19.5391 65.6302 15.4989 60.6464 15.4989L29.0628 15.4989C26.571 15.4989 24.5509 17.519 24.5509 20.0109L24.5509 43.473Z" fill="#FFF1DA"/>
<path d="M45.3058 25.2882V20.1479C45.3058 19.1402 44.4889 18.3233 43.4812 18.3233H41.5152C40.7291 18.3233 40.0316 17.8196 39.7845 17.0734C39.5092 16.2421 39.1748 15.4377 38.7862 14.6653C38.4324 13.9619 38.5678 13.1114 39.1246 12.5545L40.5156 11.1636C41.2281 10.451 41.2281 9.29577 40.5156 8.58321L36.8808 4.94843C36.1682 4.23587 35.013 4.23587 34.3005 4.94843L32.9095 6.33941C32.3526 6.89628 31.5021 7.03163 30.7987 6.67776C30.0263 6.28921 29.2219 5.95476 28.3906 5.6795C27.6444 5.43239 27.1407 4.7349 27.1407 3.94881V1.98289C27.1407 0.975195 26.3239 0.158325 25.3162 0.158325H20.1758C19.1681 0.158325 18.3512 0.975195 18.3512 1.98289V3.9489C18.3512 4.73499 17.8476 5.43248 17.1013 5.6796C16.27 5.95485 15.4657 6.2893 14.6933 6.67785C13.9898 7.03173 13.1394 6.89628 12.5825 6.3395L11.1915 4.94852C10.479 4.23596 9.32374 4.23596 8.61118 4.94852L4.97657 8.58331C4.26401 9.29587 4.26401 10.4511 4.97657 11.1636L6.36755 12.5546C6.92433 13.1115 7.05978 13.962 6.7059 14.6654C6.31735 15.4378 5.9829 16.2422 5.70765 17.0735C5.53298 17.6008 5.13344 18.007 4.63667 18.1999C4.43051 18.28 4.29832 18.4141 4.06773 18.4141H2.10173C1.09403 18.4141 0.277161 19.2309 0.277161 20.2386V25.1974C0.277161 26.2051 1.09403 27.022 2.10173 27.022H4.06773C4.85383 27.022 5.55132 27.6164 5.79843 28.3627C6.07369 29.194 6.40813 29.9982 6.79669 30.7707C7.15056 31.4742 7.01511 32.3246 6.45834 32.8815L5.15814 34.2725C4.44558 34.9851 4.44558 36.1403 5.15814 36.8528L8.61136 40.3061C9.32392 41.0186 10.4791 41.0186 11.1917 40.3061L12.5827 38.9151C13.1395 38.3582 13.99 38.2228 14.6935 38.5767C15.4659 38.9653 16.4518 39.3905 17.2831 39.6658C18.0293 39.9129 18.533 40.6104 18.533 41.3965V43.3625C18.533 44.3702 19.3499 45.187 20.3576 45.187H25.2256C26.2333 45.187 27.0501 44.3702 27.0501 43.3625V41.3965C27.0501 41.1659 27.1842 41.0337 27.2643 40.8275C27.4572 40.3307 27.8634 39.9312 28.3907 39.7565C29.222 39.4813 30.0264 39.1468 30.7988 38.7583C31.5022 38.4044 32.3527 38.5399 32.9096 39.0966L34.3005 40.4876C35.0131 41.2002 36.1683 41.2002 36.8809 40.4876L40.5157 36.8528C41.2282 36.1403 41.2282 34.9851 40.5157 34.2725L39.1247 32.8815C38.5679 32.3246 38.4325 31.4742 38.7863 30.7707C39.1749 29.9983 39.5093 29.194 39.7846 28.3627C40.0317 27.6164 40.7292 27.1128 41.5153 27.1128H43.4813C44.4889 27.1128 45.3058 26.2959 45.3058 25.2882V25.2882Z" fill="#B6C4CF"/>
<path d="M27.2644 40.8275C27.1845 41.0336 27.1409 41.2569 27.1409 41.4875V43.4529C27.1409 44.4606 26.3239 45.2777 25.3162 45.2777H20.176C19.1683 45.2777 18.3513 44.4606 18.3513 43.4529V41.4875C18.3513 40.7013 17.8474 40.0032 17.1012 39.7562C16.2705 39.4812 15.4662 39.1471 14.6936 38.7585C13.99 38.4045 13.1394 38.5397 12.5829 39.0963L11.1921 40.4871C10.4794 41.1997 9.32376 41.1997 8.61111 40.4871L4.97614 36.853C4.2644 36.1403 4.2644 34.9847 4.97614 34.272L6.36785 32.8812C6.92435 32.3247 7.05962 31.4741 6.70556 30.7705C6.31701 29.9979 5.98293 29.1936 5.70785 28.3629C5.46092 27.6167 4.7628 27.1128 3.97661 27.1128H2.01115C1.00345 27.1128 0.186401 26.2958 0.186401 25.2881V20.1479C0.186401 19.1402 1.00345 18.3232 2.01115 18.3232H3.97661C4.2072 18.3232 4.43053 18.2796 4.63661 18.1997C4.63479 18.3132 4.63388 18.4276 4.63388 18.542C4.63388 30.8513 14.6128 40.8302 26.9221 40.8302C27.0365 40.8302 27.1509 40.8293 27.2644 40.8275V40.8275Z" fill="#9FACBA"/>
<path d="M22.7461 37.6973C31.0189 37.6973 37.7254 30.9909 37.7254 22.718C37.7254 14.4452 31.0189 7.73877 22.7461 7.73877C14.4733 7.73877 7.76685 14.4452 7.76685 22.718C7.76685 30.9909 14.4733 37.6973 22.7461 37.6973Z" fill="#9FACBA"/>
<path d="M22.7461 34.5198C29.264 34.5198 34.5479 29.236 34.5479 22.718C34.5479 16.2 29.264 10.9161 22.7461 10.9161C16.2281 10.9161 10.9442 16.2 10.9442 22.718C10.9442 29.236 16.2281 34.5198 22.7461 34.5198Z" fill="#F8F7F7"/>
</svg>
