<svg width="84" height="71" viewBox="0 0 84 71" fill="none" xmlns="http://www.w3.org/2000/svg">
<path d="M83.814 54.3753C83.814 63.3461 76.5418 70.6183 67.571 70.6183L43.2065 70.6183C40.7147 70.6183 38.6946 68.5982 38.6946 66.1063L38.6946 35.4252C38.6946 30.4414 42.7347 26.4013 47.7185 26.4013L79.3021 26.4013C81.7939 26.4013 83.814 28.4213 83.814 30.9132L83.814 54.3753Z" fill="#FFF1DA"/>
<path d="M22.0248 45.9447L20.321 45.129L10.1992 60.0948H21.4953L22.5838 59.385V46.4569L22.0248 45.9447Z" fill="#407093"/>
<path d="M20.475 45.2028L16.6443 43.3689H15.9223L5.09027 59.3851L5.73514 60.0948H10.4032L20.475 45.2028Z" fill="#365E7D"/>
<path d="M24.6174 59.385H9.68061C9.00205 59.385 8.45193 59.935 8.45193 60.6137V62.1706C8.45193 62.8491 9.00193 63.3991 9.68036 63.3992H24.6174C25.2959 63.3992 25.846 62.8492 25.846 62.1706V60.6137C25.846 59.935 25.2959 59.385 24.6174 59.385V59.385Z" fill="#4A80AA"/>
<path d="M8.70622 62.1706V60.6137C8.70622 59.9351 9.25634 59.385 9.93489 59.385H2.02298C1.34443 59.385 0.794312 59.935 0.794312 60.6137V62.1706C0.794312 62.8492 1.34443 63.3992 2.02298 63.3992H9.93477C9.25622 63.3992 8.70622 62.8492 8.70622 62.1706V62.1706Z" fill="#407093"/>
<path d="M19.9608 36.3119C19.501 37.2604 19.2412 38.3239 19.2412 39.4489C19.2412 42.5232 21.1663 45.1458 23.8758 46.1832C25.0391 45.8188 26.0727 45.1613 26.8892 44.2957V42.7248L19.9608 36.3119Z" fill="#4A80AA"/>
<path d="M19.3625 39.4736C19.3625 38.3745 19.6166 37.3357 20.0666 36.4096L17.8519 34.3596H16.9533C15.5943 35.6416 14.7448 37.4578 14.7448 39.4734C14.7448 43.3565 17.8925 46.5042 21.7755 46.5042C22.5844 46.5042 23.36 46.3654 24.083 46.1139C21.3352 45.158 19.3625 42.5469 19.3625 39.4736V39.4736Z" fill="#407093"/>
<path d="M60.1823 1.06649C59.0697 -0.0460887 57.2659 -0.0460887 56.1534 1.06649L53.4346 3.78526V4.12984L56.828 7.66731L57.4635 7.81413L60.1821 5.09536C61.2949 3.9829 61.2949 2.17907 60.1823 1.06649V1.06649Z" fill="#FFD086"/>
<path d="M60.9339 2.41125C60.8152 1.91875 60.5667 1.45104 60.1823 1.06649C59.0697 -0.0460887 57.2659 -0.0460887 56.1534 1.06649L53.4346 3.78526V4.12984L55.2338 6.00536C56.3064 4.8892 57.3713 3.78773 57.919 3.24007C58.832 2.32724 60.1654 2.32021 60.9339 2.41125V2.41125Z" fill="#FFC365"/>
<path d="M50.8745 8.30867C50.8433 8.30867 50.8117 8.30707 50.78 8.30399L19.3621 5.21152C18.8381 5.15995 18.4553 4.69347 18.5069 4.16951C18.5585 3.64554 19.0252 3.26296 19.5489 3.31416L50.9668 6.40651C51.4907 6.45808 51.8736 6.92455 51.822 7.44852C51.7735 7.9409 51.3589 8.30867 50.8745 8.30867Z" fill="#365E7D"/>
<path d="M28.4488 14.1903C28.026 14.1903 27.6397 13.9068 27.5275 13.4787C27.3939 12.9694 27.6985 12.4483 28.2076 12.3146L50.632 6.43284C51.1412 6.29948 51.6624 6.60384 51.7959 7.11312C51.9295 7.62228 51.625 8.14341 51.1158 8.27702L28.6914 14.1588C28.6102 14.1801 28.5288 14.1903 28.4488 14.1903V14.1903Z" fill="#407093"/>
<path d="M56.9648 42.767C56.48 42.767 56.0654 42.3989 56.0171 41.9064L52.9439 10.4692C52.8927 9.94535 53.2759 9.479 53.7999 9.42768C54.3238 9.37883 54.7901 9.7598 54.8413 10.2838L57.9145 41.7209C57.9657 42.2448 57.5825 42.7111 57.0585 42.7624C57.0271 42.7654 56.9957 42.767 56.9648 42.767Z" fill="#365E7D"/>
<path d="M47.9217 33.8437C47.8409 33.8437 47.7588 33.8332 47.6768 33.8117C47.1679 33.6767 46.8648 33.1548 46.9998 32.6459L52.9682 10.1349C53.103 9.62586 53.6248 9.32323 54.1338 9.45771C54.6427 9.59268 54.9459 10.1145 54.8109 10.6235L48.8425 33.1345C48.7293 33.5616 48.3436 33.8437 47.9217 33.8437V33.8437Z" fill="#407093"/>
<path d="M50.7025 6.51648L53.4282 3.79078L57.4565 7.8191L54.7308 10.5448L50.7025 6.51648Z" fill="#FFC365"/>
<path d="M52.7726 8.57536C53.4277 7.8894 54.4507 6.81951 55.4402 5.79083L53.4348 3.78528L50.7086 6.51133L52.7726 8.57536Z" fill="#FFA90F"/>
<path d="M55.3444 12.1001C55.1005 12.1001 54.8565 12.007 54.6704 11.8209L49.428 6.57858C49.0556 6.20624 49.0556 5.60283 49.428 5.23036C49.8002 4.85827 50.4037 4.85827 50.776 5.23036L56.0185 10.4727C56.3909 10.8451 56.3909 11.4485 56.0185 11.8209C55.8324 12.0071 55.5885 12.1001 55.3444 12.1001Z" fill="#4A80AA"/>
<path d="M55.9597 44.483L24.0415 12.288C19.8098 21.8412 19.0749 32.0966 22.2429 40.9401C30.992 48.8323 44.0616 50.0442 56.0934 45.0831L55.9597 44.483Z" fill="#B5DCFF"/>
<path d="M24.2115 12.4594L16.8985 5.08301L16.1657 5.1553C11.0134 17.6509 12.5178 31.2667 21.2499 39.9988C21.7788 40.5277 22.3261 41.0296 22.8895 41.5057C19.2086 32.6727 19.8068 22.167 24.2115 12.4594V12.4594Z" fill="#8BCAFF"/>
<path d="M58.8765 42.1946L26.5047 9.82275C26.1861 9.87186 25.8794 10.0167 25.6341 10.262L24.2261 11.6701C23.9237 11.9725 23.7733 12.3674 23.769 12.7638L56.0382 45.0329C56.518 45.5127 57.2958 45.5127 57.7756 45.0329L58.8766 43.9321C59.3563 43.4524 59.3563 42.6744 58.8765 42.1946Z" fill="#DBEDFF"/>
<path d="M24.2747 11.6942L25.6534 10.3155C25.9073 10.0616 26.2279 9.91631 26.5588 9.87695L19.0543 2.37242C18.5745 1.89262 17.7966 1.89262 17.3167 2.37242L16.2157 3.4734C15.7359 3.9532 15.7359 4.73107 16.2157 5.21086L23.8257 12.8209C23.8157 12.4142 23.9644 12.0045 24.2747 11.6942V11.6942Z" fill="#B5DCFF"/>
</svg>
