<svg width="139" height="151" viewBox="0 0 139 151" fill="none" xmlns="http://www.w3.org/2000/svg">
<path d="M10.4651 11.1361V12.8228H0.790892V11.1361H10.4651ZM6.52952 7.01628V17.2915H4.7362V7.01628H6.52952Z" fill="#FF7152"/>
<path d="M10.4651 42.7196V44.4063H0.790831V42.7196H10.4651ZM6.52945 38.5998V48.875H4.73613V38.5998H6.52945Z" fill="#E5E5E5"/>
<path d="M10.4651 74.3031V75.9898H0.790831V74.3031H10.4651ZM6.52945 70.1833V80.4585H4.73613V70.1833H6.52945Z" fill="#E5E5E5"/>
<path d="M42.0487 11.1361V12.8228H32.3744V11.1361H42.0487ZM38.1131 7.01628V17.2915H36.3198V7.01628H38.1131Z" fill="#E5E5E5"/>
<path d="M42.0487 42.7196V44.4063H32.3744V42.7196H42.0487ZM38.1131 38.5998V48.875H36.3198V38.5998H38.1131Z" fill="#E5E5E5"/>
<path d="M42.0487 74.3031V75.9898H32.3744V74.3031H42.0487ZM38.1131 70.1833V80.4585H36.3198V70.1833H38.1131Z" fill="#E5E5E5"/>
<path d="M42.0487 105.887V107.573H32.3744V105.887H42.0487ZM38.1131 101.767V112.042H36.3198V101.767H38.1131Z" fill="#E5E5E5"/>
<path d="M73.6322 11.1361V12.8228H63.958V11.1361H73.6322ZM69.6966 7.01628V17.2915H67.9033V7.01628H69.6966Z" fill="#E5E5E5"/>
<path d="M73.6322 42.7196V44.4063H63.958V42.7196H73.6322ZM69.6966 38.5998V48.875H67.9033V38.5998H69.6966Z" fill="#E5E5E5"/>
<path d="M73.6322 74.3031V75.9898H63.958V74.3031H73.6322ZM69.6966 70.1833V80.4585H67.9033V70.1833H69.6966Z" fill="#6246E5"/>
<path d="M73.6322 105.887V107.573H63.958V105.887H73.6322ZM69.6966 101.767V112.042H67.9033V101.767H69.6966Z" fill="#E5E5E5"/>
<path d="M73.6322 137.47V139.157H63.958V137.47H73.6322ZM69.6966 133.351V143.626H67.9033V133.351H69.6966Z" fill="#E5E5E5"/>
<path d="M105.216 11.1361V12.8228H95.5416V11.1361H105.216ZM101.28 7.01628V17.2915H99.4869V7.01628H101.28Z" fill="#E5E5E5"/>
<path d="M105.216 42.7196V44.4063H95.5416V42.7196H105.216ZM101.28 38.5998V48.875H99.4869V38.5998H101.28Z" fill="#E5E5E5"/>
<path d="M105.216 74.3031V75.9898H95.5416V74.3031H105.216ZM101.28 70.1833V80.4585H99.4869V70.1833H101.28Z" fill="#E5E5E5"/>
<path d="M105.216 105.887V107.573H95.5416V105.887H105.216ZM101.28 101.767V112.042H99.4869V101.767H101.28Z" fill="#E5E5E5"/>
<path d="M105.216 137.47V139.157H95.5416V137.47H105.216ZM101.28 133.351V143.626H99.4869V133.351H101.28Z" fill="#E5E5E5"/>
<path d="M136.799 11.1361V12.8228H127.125V11.1361H136.799ZM132.864 7.01628V17.2915H131.07V7.01628H132.864Z" fill="#E5E5E5"/>
<path d="M136.799 42.7196V44.4063H127.125V42.7196H136.799ZM132.864 38.5998V48.875H131.07V38.5998H132.864Z" fill="#E5E5E5"/>
<path d="M136.799 74.3031V75.9898H127.125V74.3031H136.799ZM132.864 70.1833V80.4585H131.07V70.1833H132.864Z" fill="#E5E5E5"/>
<path d="M136.799 105.887V107.573H127.125V105.887H136.799ZM132.864 101.767V112.042H131.07V101.767H132.864Z" fill="#E5E5E5"/>
<path d="M136.799 137.47V139.157H127.125V137.47H136.799ZM132.864 133.351V143.626H131.07V133.351H132.864Z" fill="#E5E5E5"/>
</svg>
