<svg width="338" height="249" viewBox="0 0 338 249" fill="none" xmlns="http://www.w3.org/2000/svg">
<path d="M117.734 332.608C55.169 332.608 4.44883 281.817 4.44883 219.162C4.44883 156.507 55.169 105.716 117.734 105.716C180.299 105.716 231.019 156.507 231.019 219.162C231.019 281.817 180.299 332.608 117.734 332.608Z" stroke="#6246E5" stroke-width="0.902388"/>
<path d="M129.706 337.104C59.7027 337.104 2.9524 280.274 2.95241 210.17C2.95241 140.066 59.7027 83.2358 129.706 83.2358C199.71 83.2358 256.461 140.066 256.461 210.17C256.461 280.274 199.71 337.104 129.706 337.104Z" stroke="#6246E5" stroke-width="0.902388"/>
<path d="M139.434 341.6C62.818 341.6 0.7075 279.403 0.707503 202.677C0.707506 125.951 62.818 63.7537 139.434 63.7537C216.05 63.7537 278.16 125.951 278.16 202.677C278.16 279.403 216.05 341.6 139.434 341.6Z" stroke="#6246E5" stroke-width="0.902388"/>
<path d="M153.651 344.597C71.2498 344.597 4.44923 277.703 4.44923 195.184C4.44924 112.664 71.2499 45.7698 153.651 45.7698C236.053 45.7698 302.853 112.664 302.853 195.184C302.853 277.703 236.053 344.597 153.651 344.597Z" stroke="#6246E5" stroke-width="0.902388"/>
<path d="M167.494 347.595C79.5136 347.595 8.19039 276.171 8.19039 188.065C8.1904 99.9585 79.5137 28.5352 167.494 28.5352C255.474 28.5352 326.798 99.9585 326.798 188.065C326.798 276.171 255.474 347.595 167.494 347.595Z" stroke="#6246E5" stroke-width="0.902388"/>
<path d="M183.208 351.342C86.5488 351.342 8.19039 272.873 8.19039 176.076C8.1904 79.279 86.5489 0.810496 183.208 0.8105C279.866 0.810504 358.225 79.279 358.225 176.076C358.225 272.873 279.866 351.342 183.208 351.342Z" stroke="#6246E5" stroke-width="0.902388"/>
</svg>
