<svg width="19" height="17" viewBox="0 0 19 17" fill="none" xmlns="http://www.w3.org/2000/svg">
<path d="M17.2941 1.60621C16.3606 0.602826 15.0525 0.0319151 13.682 0.0297987C12.3104 0.031386 11.001 0.601995 10.0661 1.60557L9.74743 1.94227L9.42879 1.60557C7.57362 -0.391109 4.45103 -0.505775 2.45439 1.3494C2.36591 1.43164 2.28046 1.51705 2.19822 1.60557C0.230231 3.72829 0.230231 7.00885 2.19822 9.13157L9.27917 16.5989C9.52415 16.8575 9.93239 16.8686 10.191 16.6236C10.1995 16.6156 10.2077 16.6073 10.2157 16.5989L17.2941 9.13157C19.2619 7.00908 19.2619 3.7287 17.2941 1.60621ZM16.3608 8.24338H16.3601L9.74743 15.2179L3.13414 8.24338C1.63071 6.62143 1.63071 4.11507 3.13414 2.49311C4.49944 1.01334 6.80587 0.920558 8.28565 2.28585C8.35749 2.35214 8.42662 2.42127 8.49291 2.49311L9.27917 3.32261C9.53828 3.58006 9.95662 3.58006 10.2157 3.32261L11.002 2.49376C12.3673 1.01398 14.6737 0.9212 16.1535 2.2865C16.2253 2.35279 16.2945 2.42191 16.3608 2.49376C17.8773 4.11828 17.8884 6.62921 16.3608 8.24338Z" fill="#4152CA"/>
</svg>
