<svg width="34" height="34" viewBox="0 0 34 34" fill="none" xmlns="http://www.w3.org/2000/svg">
<circle cx="16.956" cy="17.0766" r="16.243" fill="#F5F5F5"/>
<g clip-path="url(#clip0_2729_632)">
<path d="M22.9609 11.7984C22.628 11.701 14.4857 10.8903 11.6262 14.7535C10.3597 16.465 10.3407 18.8111 11.5627 21.7261C11.2527 22.3695 10.9813 23.0473 10.7602 23.7624C10.693 23.9798 10.8146 24.2102 11.0316 24.2772C11.0721 24.2898 11.1131 24.2957 11.1536 24.2957C11.329 24.2957 11.492 24.1823 11.5463 24.0058C13.7258 16.9595 20.8086 13.5507 22.9806 12.6895C23.192 12.6056 23.4744 11.9487 22.9609 11.7984Z" fill="#84829A"/>
<path d="M12.8699 22.608C14.0488 23.1025 15.2275 23.356 16.3236 23.356C17.3088 23.356 18.2276 23.1534 19.0194 22.7427C20.6128 21.916 21.5866 20.3349 21.8352 18.1696C22.0886 15.9629 22.404 14.5807 22.6671 13.7351C20.3251 14.8154 15.3035 17.6156 12.8699 22.608Z" fill="#84829A"/>
</g>
<defs>
<clipPath id="clip0_2729_632">
<rect width="12.6334" height="12.6334" fill="white" transform="translate(10.6393 11.6623)"/>
</clipPath>
</defs>
</svg>
