<svg width="33" height="34" viewBox="0 0 33 34" fill="none" xmlns="http://www.w3.org/2000/svg">
<circle cx="16.6849" cy="17.0766" r="16.243" fill="#F5F5F5"/>
<g clip-path="url(#clip0_2729_646)">
<path d="M21.649 10.7599C21.5789 10.7599 21.5097 10.7761 21.4471 10.8075L18.028 12.5175L14.1618 10.7989C14.1554 10.7962 14.1482 10.7957 14.1415 10.793C14.1241 10.7865 14.1063 10.7811 14.0882 10.7768C14.0703 10.772 14.052 10.7682 14.0336 10.7655C13.997 10.7625 13.9602 10.7625 13.9235 10.7655C13.9051 10.7682 13.8869 10.772 13.869 10.7768C13.8509 10.7811 13.8331 10.7865 13.8157 10.793C13.8089 10.7957 13.8017 10.7962 13.7954 10.7989L9.73472 12.6037C9.57171 12.676 9.46668 12.8377 9.46671 13.016V22.9421C9.46678 23.0948 9.54401 23.2371 9.67199 23.3202C9.79999 23.4036 9.96144 23.4165 10.1011 23.3545L13.9786 21.631L17.8561 23.3545C17.8628 23.3572 17.87 23.3545 17.8768 23.3586C17.9861 23.4075 18.1114 23.4047 18.2184 23.3509C18.2256 23.3478 18.2337 23.3509 18.2409 23.346L21.8504 21.5412C22.0034 21.4648 22.1 21.3084 22.0999 21.1374V11.2113C22.1001 10.9621 21.8981 10.76 21.649 10.7599ZM13.5274 20.8441L10.3691 22.2478V13.3093L13.5274 11.9057V20.8441ZM17.5881 22.2478L14.4298 20.8441V11.9057L17.5881 13.3093V22.2478ZM21.1976 20.8586L18.4904 22.2121V13.2949L21.1976 11.9413V20.8586V20.8586Z" fill="#84829A"/>
</g>
<defs>
<clipPath id="clip0_2729_646">
<rect width="12.6334" height="12.6334" fill="white" transform="translate(9.46585 10.7599)"/>
</clipPath>
</defs>
</svg>
