<svg width="19" height="19" viewBox="0 0 19 19" fill="none" xmlns="http://www.w3.org/2000/svg">
<path d="M16.3012 2.77032L10.0973 16.3061C10.0454 16.4195 9.95735 16.5125 9.84698 16.5705C9.7366 16.6286 9.61011 16.6484 9.48727 16.6269C9.36444 16.6054 9.25219 16.5438 9.16808 16.4517C9.08398 16.3597 9.03276 16.2423 9.02243 16.1181L8.49792 9.82576L2.20563 9.30124C2.08135 9.29092 1.964 9.2397 1.87193 9.15559C1.77986 9.07149 1.71826 8.95924 1.69677 8.8364C1.67527 8.71357 1.69509 8.58707 1.75313 8.4767C1.81117 8.36633 1.90415 8.2783 2.01753 8.22639L15.5534 2.02247C15.658 1.97451 15.7748 1.95972 15.8881 1.98009C16.0014 2.00045 16.1057 2.05499 16.1871 2.13638C16.2685 2.21777 16.3231 2.32212 16.3434 2.43541C16.3638 2.5487 16.349 2.66551 16.301 2.77015L16.3012 2.77032Z" fill="#080809"/>
</svg>
