<svg width="34" height="34" viewBox="0 0 34 34" fill="none" xmlns="http://www.w3.org/2000/svg">
<circle cx="16.9019" cy="17.0766" r="16.243" fill="#F5F5F5"/>
<path d="M21.7237 12.7835L16.0229 18.5054C15.9575 18.4675 15.8888 18.4358 15.8176 18.4106L12.0539 17.1368C11.9401 17.1082 11.839 17.0425 11.7668 16.95C11.6947 16.8575 11.6555 16.7435 11.6555 16.6262C11.6555 16.5088 11.6947 16.3949 11.7668 16.3023C11.839 16.2098 11.9401 16.1441 12.0539 16.1156L21.3921 12.794C21.4531 12.7733 21.5171 12.7626 21.5816 12.7624C21.6298 12.7617 21.6778 12.7688 21.7237 12.7835V12.7835Z" fill="#84829A"/>
<path d="M22.0869 13.4889L18.7654 22.8376C18.7288 22.9465 18.6575 23.0405 18.5624 23.1052C18.4674 23.1698 18.3538 23.2015 18.239 23.1955C18.1229 23.2009 18.0083 23.1676 17.9131 23.1009C17.8178 23.0343 17.7474 22.938 17.7126 22.8271L16.4598 19.0634C16.4346 18.9921 16.4029 18.9234 16.3651 18.8581L22.0975 13.1572C22.1298 13.266 22.1261 13.3823 22.0869 13.4889V13.4889Z" fill="#84829A"/>
</svg>
