<svg width="16" height="13" viewBox="0 0 16 13" fill="none" xmlns="http://www.w3.org/2000/svg">
<path d="M15.0607 2.33177C14.5238 2.56729 13.9517 2.7234 13.3552 2.79921C13.9688 2.43284 14.4372 1.85711 14.6573 1.16318C14.0852 1.50428 13.4536 1.74522 12.7804 1.87967C12.2371 1.30124 11.4629 0.942993 10.6182 0.942993C8.97951 0.942993 7.66022 2.27311 7.66022 3.90373C7.66022 4.13835 7.68007 4.36395 7.7288 4.57871C5.26799 4.4587 3.09053 3.27928 1.62776 1.48262C1.37238 1.92569 1.22259 2.43284 1.22259 2.97878C1.22259 4.00389 1.75048 4.9126 2.53736 5.43869C2.06181 5.42967 1.59527 5.2916 1.20003 5.07413C1.20003 5.08315 1.20003 5.09488 1.20003 5.10661C1.20003 6.54502 2.22604 7.73978 3.5715 8.01501C3.33056 8.08088 3.06797 8.11246 2.79545 8.11246C2.60595 8.11246 2.41464 8.10164 2.23506 8.06193C2.61858 9.23413 3.70686 10.0959 5.00088 10.1239C3.99382 10.9117 2.71514 11.3863 1.33087 11.3863C1.08813 11.3863 0.855314 11.3755 0.622498 11.3457C1.93367 12.1913 3.48758 12.674 5.16331 12.674C10.6101 12.674 13.588 8.1621 13.588 4.25115C13.588 4.1203 13.5835 3.99397 13.5772 3.86853C14.1646 3.45163 14.6582 2.93095 15.0607 2.33177Z" fill="#080809"/>
</svg>
